# Blender v2.79 (sub 0) OBJ File: ''
# www.blender.org
o Chimney_Border_4
v 1.450000 5.500000 -1.850000
v 1.450000 5.500000 -1.950000
v 1.950000 5.500000 -1.950000
v 1.950000 5.500000 -1.850000
v 1.450000 6.000000 -1.850000
v 1.450000 6.000000 -1.950000
v 1.950000 6.000000 -1.950000
v 1.950000 6.000000 -1.850000
vn 0.0000 -1.0000 0.0000
vn -1.0000 0.0000 0.0000
vn 0.0000 0.0000 -1.0000
vn 1.0000 0.0000 0.0000
vn 0.0000 0.0000 1.0000
vn 0.0000 1.0000 0.0000
s off
f 2//1 4//1 1//1
f 5//2 2//2 1//2
f 6//3 3//3 2//3
f 3//4 8//4 4//4
f 4//5 5//5 1//5
f 8//6 6//6 5//6
f 2//1 3//1 4//1
f 5//2 6//2 2//2
f 6//3 7//3 3//3
f 3//4 7//4 8//4
f 4//5 8//5 5//5
f 8//6 7//6 6//6
o Chimney_Border_3
v 1.350000 5.500000 -1.450000
v 1.350000 5.500000 -1.950000
v 1.450000 5.500000 -1.950000
v 1.450000 5.500000 -1.450000
v 1.350000 6.000000 -1.450000
v 1.350000 6.000000 -1.950000
v 1.450000 6.000000 -1.950000
v 1.450000 6.000000 -1.450000
vn 0.0000 -1.0000 0.0000
vn -1.0000 0.0000 0.0000
vn 0.0000 0.0000 -1.0000
vn 1.0000 0.0000 0.0000
vn 0.0000 0.0000 1.0000
vn 0.0000 1.0000 0.0000
s off
f 10//7 12//7 9//7
f 13//8 10//8 9//8
f 14//9 11//9 10//9
f 11//10 16//10 12//10
f 12//11 13//11 9//11
f 16//12 14//12 13//12
f 10//7 11//7 12//7
f 13//8 14//8 10//8
f 14//9 15//9 11//9
f 11//10 15//10 16//10
f 12//11 16//11 13//11
f 16//12 15//12 14//12
o Chimney_Border_2
v 1.850000 5.500000 -1.450000
v 1.850000 5.500000 -1.950000
v 1.950000 5.500000 -1.950000
v 1.950000 5.500000 -1.450000
v 1.850000 6.000000 -1.450000
v 1.850000 6.000000 -1.950000
v 1.950000 6.000000 -1.950000
v 1.950000 6.000000 -1.450000
vn 0.0000 -1.0000 0.0000
vn -1.0000 0.0000 0.0000
vn 0.0000 0.0000 -1.0000
vn 1.0000 0.0000 0.0000
vn 0.0000 0.0000 1.0000
vn 0.0000 1.0000 0.0000
s off
f 18//13 20//13 17//13
f 21//14 18//14 17//14
f 22//15 19//15 18//15
f 19//16 24//16 20//16
f 20//17 21//17 17//17
f 24//18 22//18 21//18
f 18//13 19//13 20//13
f 21//14 22//14 18//14
f 22//15 23//15 19//15
f 19//16 23//16 24//16
f 20//17 24//17 21//17
f 24//18 23//18 22//18
o Chimney_Border_1
v 1.450000 5.500000 -1.450000
v 1.450000 5.500000 -1.550000
v 1.950000 5.500000 -1.550000
v 1.950000 5.500000 -1.450000
v 1.450000 6.000000 -1.450000
v 1.450000 6.000000 -1.550000
v 1.950000 6.000000 -1.550000
v 1.950000 6.000000 -1.450000
vn 0.0000 -1.0000 0.0000
vn -1.0000 0.0000 0.0000
vn 0.0000 0.0000 -1.0000
vn 1.0000 0.0000 0.0000
vn 0.0000 0.0000 1.0000
vn 0.0000 1.0000 0.0000
s off
f 26//19 28//19 25//19
f 29//20 26//20 25//20
f 30//21 27//21 26//21
f 27//22 32//22 28//22
f 28//23 29//23 25//23
f 32//24 30//24 29//24
f 26//19 27//19 28//19
f 29//20 30//20 26//20
f 30//21 31//21 27//21
f 27//22 31//22 32//22
f 28//23 32//23 29//23
f 32//24 31//24 30//24
o Chimney_4
v 1.500000 4.000000 -1.800000
v 1.500000 4.000000 -1.900000
v 1.900000 4.000000 -1.900000
v 1.900000 4.000000 -1.800000
v 1.500000 6.000000 -1.800000
v 1.500000 6.000000 -1.900000
v 1.900000 6.000000 -1.900000
v 1.900000 6.000000 -1.800000
vn 0.0000 -1.0000 0.0000
vn -1.0000 0.0000 0.0000
vn 0.0000 0.0000 -1.0000
vn 1.0000 0.0000 0.0000
vn 0.0000 0.0000 1.0000
vn 0.0000 1.0000 0.0000
s off
f 34//25 36//25 33//25
f 37//26 34//26 33//26
f 38//27 35//27 34//27
f 35//28 40//28 36//28
f 36//29 37//29 33//29
f 40//30 38//30 37//30
f 34//25 35//25 36//25
f 37//26 38//26 34//26
f 38//27 39//27 35//27
f 35//28 39//28 40//28
f 36//29 40//29 37//29
f 40//30 39//30 38//30
o Chimney_3
v 1.400000 4.000000 -1.500000
v 1.400000 4.000000 -1.900000
v 1.500000 4.000000 -1.900000
v 1.500000 4.000000 -1.500000
v 1.400000 6.000000 -1.500000
v 1.400000 6.000000 -1.900000
v 1.500000 6.000000 -1.900000
v 1.500000 6.000000 -1.500000
vn 0.0000 -1.0000 0.0000
vn -1.0000 0.0000 0.0000
vn 0.0000 0.0000 -1.0000
vn 1.0000 0.0000 0.0000
vn 0.0000 0.0000 1.0000
vn 0.0000 1.0000 0.0000
s off
f 42//31 44//31 41//31
f 45//32 42//32 41//32
f 46//33 43//33 42//33
f 43//34 48//34 44//34
f 44//35 45//35 41//35
f 48//36 46//36 45//36
f 42//31 43//31 44//31
f 45//32 46//32 42//32
f 46//33 47//33 43//33
f 43//34 47//34 48//34
f 44//35 48//35 45//35
f 48//36 47//36 46//36
o Chimney_2
v 1.800000 4.000000 -1.500000
v 1.800000 4.000000 -1.900000
v 1.900000 4.000000 -1.900000
v 1.900000 4.000000 -1.500000
v 1.800000 6.000000 -1.500000
v 1.800000 6.000000 -1.900000
v 1.900000 6.000000 -1.900000
v 1.900000 6.000000 -1.500000
vn 0.0000 -1.0000 0.0000
vn -1.0000 0.0000 0.0000
vn 0.0000 0.0000 -1.0000
vn 1.0000 0.0000 0.0000
vn 0.0000 0.0000 1.0000
vn 0.0000 1.0000 0.0000
s off
f 50//37 52//37 49//37
f 53//38 50//38 49//38
f 54//39 51//39 50//39
f 51//40 56//40 52//40
f 52//41 53//41 49//41
f 56//42 54//42 53//42
f 50//37 51//37 52//37
f 53//38 54//38 50//38
f 54//39 55//39 51//39
f 51//40 55//40 56//40
f 52//41 56//41 53//41
f 56//42 55//42 54//42
o Chimney_1
v 1.500000 4.000000 -1.500000
v 1.500000 4.000000 -1.600000
v 1.900000 4.000000 -1.600000
v 1.900000 4.000000 -1.500000
v 1.500000 6.000000 -1.500000
v 1.500000 6.000000 -1.600000
v 1.900000 6.000000 -1.600000
v 1.900000 6.000000 -1.500000
vn 0.0000 -1.0000 0.0000
vn -1.0000 0.0000 0.0000
vn 0.0000 0.0000 -1.0000
vn 1.0000 0.0000 0.0000
vn 0.0000 0.0000 1.0000
vn 0.0000 1.0000 0.0000
s off
f 58//43 60//43 57//43
f 61//44 58//44 57//44
f 62//45 59//45 58//45
f 59//46 64//46 60//46
f 60//47 61//47 57//47
f 64//48 62//48 61//48
f 58//43 59//43 60//43
f 61//44 62//44 58//44
f 62//45 63//45 59//45
f 59//46 63//46 64//46
f 60//47 64//47 61//47
f 64//48 63//48 62//48
o Roof_4
v 0.000000 6.000000 2.900000
v 0.000000 6.000000 -2.900000
v 2.900000 3.600000 -2.900000
v 2.900000 3.600000 2.900000
v 0.000000 6.200000 2.900000
v 0.000000 6.200000 -2.900000
v 2.900000 3.800000 -2.900000
v 2.900000 3.800000 2.900000
vn -0.6376 -0.7704 0.0000
vn -1.0000 0.0000 0.0000
vn 0.0000 0.0000 -1.0000
vn 1.0000 0.0000 0.0000
vn -0.0000 0.0000 1.0000
vn 0.6376 0.7704 0.0000
s off
f 66//49 68//49 65//49
f 69//50 66//50 65//50
f 66//51 71//51 67//51
f 67//52 72//52 68//52
f 65//53 72//53 69//53
f 72//54 70//54 69//54
f 66//49 67//49 68//49
f 69//50 70//50 66//50
f 66//51 70//51 71//51
f 67//52 71//52 72//52
f 65//53 68//53 72//53
f 72//54 71//54 70//54
o Roof_3
v -2.900000 3.600000 2.900000
v -2.900000 3.600000 -2.900000
v 0.000000 6.000000 -2.900000
v 0.000000 6.000000 2.900000
v -2.900000 3.800000 2.900000
v -2.900000 3.800000 -2.900000
v 0.000000 6.200000 -2.900000
v 0.000000 6.200000 2.900000
vn 0.6376 -0.7704 0.0000
vn -1.0000 0.0000 0.0000
vn -0.0000 0.0000 -1.0000
vn 1.0000 0.0000 0.0000
vn -0.0000 0.0000 1.0000
vn -0.6376 0.7704 0.0000
s off
f 74//55 76//55 73//55
f 77//56 74//56 73//56
f 78//57 75//57 74//57
f 75//58 80//58 76//58
f 76//59 77//59 73//59
f 80//60 78//60 77//60
f 74//55 75//55 76//55
f 77//56 78//56 74//56
f 78//57 79//57 75//57
f 75//58 79//58 80//58
f 76//59 80//59 77//59
f 80//60 79//60 78//60
o Roof_2
v -2.500000 4.000000 -2.300000
v 2.500000 4.000000 -2.300000
v 0.000000 6.000000 -2.300000
v -2.500000 4.000000 -2.500000
v 2.500000 4.000000 -2.500000
v 0.000000 6.000000 -2.500000
vn 0.0000 0.0000 1.0000
vn 0.6247 0.7809 0.0000
vn 0.0000 0.0000 -1.0000
vn -0.6247 0.7809 0.0000
vn 0.0000 -0.0995 -0.9950
vn -0.6247 -0.7809 0.0000
s off
f 81//61 82//61 83//61
f 85//62 83//62 82//62
f 84//63 86//63 85//63
f 83//64 84//64 81//64
f 86//65 82//65 81//65
f 85//62 86//62 83//62
f 83//64 86//64 84//64
f 86//66 85//66 82//66
o Roof_1
v -2.500000 4.000000 2.500000
v 2.500000 4.000000 2.500000
v 0.000000 6.000000 2.500000
v -2.500000 4.000000 2.300000
v 2.500000 4.000000 2.300000
v 0.000000 6.000000 2.300000
vn 0.0000 0.0000 1.0000
vn 0.6247 0.7809 0.0000
vn 0.0000 0.0000 -1.0000
vn -0.6247 0.7809 0.0000
vn 0.0000 -0.0995 -0.9950
vn -0.6247 -0.7809 0.0000
s off
f 87//67 88//67 89//67
f 91//68 89//68 88//68
f 90//69 92//69 91//69
f 89//70 90//70 87//70
f 92//71 88//71 87//71
f 91//68 92//68 89//68
f 89//70 92//70 90//70
f 92//72 91//72 88//72
o Floor
v -2.500000 -0.200000 2.500000
v -2.500000 -0.200000 -2.500000
v 2.500000 -0.200000 -2.500000
v 2.500000 -0.200000 2.500000
v -2.500000 0.000000 2.500000
v -2.500000 0.000000 -2.500000
v 2.500000 0.000000 -2.500000
v 2.500000 0.000000 2.500000
vn 0.0000 -1.0000 0.0000
vn -1.0000 0.0000 0.0000
vn 0.0000 0.0000 -1.0000
vn 1.0000 0.0000 0.0000
vn 0.0000 0.0000 1.0000
vn 0.0000 1.0000 0.0000
s off
f 94//73 96//73 93//73
f 97//74 94//74 93//74
f 98//75 95//75 94//75
f 95//76 100//76 96//76
f 96//77 97//77 93//77
f 100//78 98//78 97//78
f 94//73 95//73 96//73
f 97//74 98//74 94//74
f 98//75 99//75 95//75
f 95//76 99//76 100//76
f 96//77 100//77 97//77
f 100//78 99//78 98//78
o Wall_6
v -2.500000 0.000000 -2.300000
v -2.500000 0.000000 -2.500000
v 2.500000 0.000000 -2.500000
v 2.500000 0.000000 -2.300000
v -2.500000 4.000000 -2.300000
v -2.500000 4.000000 -2.500000
v 2.500000 4.000000 -2.500000
v 2.500000 4.000000 -2.300000
vn 0.0000 -1.0000 0.0000
vn -1.0000 0.0000 0.0000
vn 0.0000 0.0000 -1.0000
vn 1.0000 0.0000 0.0000
vn 0.0000 0.0000 1.0000
vn 0.0000 1.0000 0.0000
s off
f 102//79 104//79 101//79
f 105//80 102//80 101//80
f 106//81 103//81 102//81
f 103//82 108//82 104//82
f 104//83 105//83 101//83
f 108//84 106//84 105//84
f 102//79 103//79 104//79
f 105//80 106//80 102//80
f 106//81 107//81 103//81
f 103//82 107//82 108//82
f 104//83 108//83 105//83
f 108//84 107//84 106//84
o Wall_5
v 2.300000 0.000000 2.500000
v 2.300000 0.000000 -2.500000
v 2.500000 0.000000 -2.500000
v 2.500000 0.000000 2.500000
v 2.300000 4.000000 2.500000
v 2.300000 4.000000 -2.500000
v 2.500000 4.000000 -2.500000
v 2.500000 4.000000 2.500000
vn 0.0000 -1.0000 0.0000
vn -1.0000 0.0000 0.0000
vn 0.0000 0.0000 -1.0000
vn 1.0000 0.0000 0.0000
vn 0.0000 0.0000 1.0000
vn 0.0000 1.0000 0.0000
s off
f 110//85 112//85 109//85
f 113//86 110//86 109//86
f 114//87 111//87 110//87
f 111//88 116//88 112//88
f 112//89 113//89 109//89
f 116//90 114//90 113//90
f 110//85 111//85 112//85
f 113//86 114//86 110//86
f 114//87 115//87 111//87
f 111//88 115//88 116//88
f 112//89 116//89 113//89
f 116//90 115//90 114//90
o Wall_4
v 0.500000 0.000000 2.500000
v 0.500000 0.000000 2.300000
v 2.500000 0.000000 2.300000
v 2.500000 0.000000 2.500000
v 0.500000 4.000000 2.500000
v 0.500000 4.000000 2.300000
v 2.500000 4.000000 2.300000
v 2.500000 4.000000 2.500000
vn 0.0000 -1.0000 0.0000
vn -1.0000 0.0000 0.0000
vn 0.0000 0.0000 -1.0000
vn 1.0000 0.0000 0.0000
vn 0.0000 0.0000 1.0000
vn 0.0000 1.0000 0.0000
s off
f 118//91 120//91 117//91
f 121//92 118//92 117//92
f 122//93 119//93 118//93
f 119//94 124//94 120//94
f 120//95 121//95 117//95
f 124//96 122//96 121//96
f 118//91 119//91 120//91
f 121//92 122//92 118//92
f 122//93 123//93 119//93
f 119//94 123//94 124//94
f 120//95 124//95 121//95
f 124//96 123//96 122//96
o Wall_3
v -0.500000 3.000000 2.500000
v -0.500000 3.000000 2.300000
v 0.500000 3.000000 2.300000
v 0.500000 3.000000 2.500000
v -0.500000 4.000000 2.500000
v -0.500000 4.000000 2.300000
v 0.500000 4.000000 2.300000
v 0.500000 4.000000 2.500000
vn 0.0000 -1.0000 0.0000
vn -1.0000 0.0000 0.0000
vn 0.0000 0.0000 -1.0000
vn 1.0000 0.0000 0.0000
vn 0.0000 0.0000 1.0000
vn 0.0000 1.0000 0.0000
s off
f 126//97 128//97 125//97
f 129//98 126//98 125//98
f 130//99 127//99 126//99
f 127//100 132//100 128//100
f 128//101 129//101 125//101
f 132//102 130//102 129//102
f 126//97 127//97 128//97
f 129//98 130//98 126//98
f 130//99 131//99 127//99
f 127//100 131//100 132//100
f 128//101 132//101 129//101
f 132//102 131//102 130//102
o Wall_2
v -2.500000 0.000000 2.500000
v -2.500000 0.000000 -2.500000
v -2.300000 0.000000 -2.500000
v -2.300000 0.000000 2.500000
v -2.500000 4.000000 2.500000
v -2.500000 4.000000 -2.500000
v -2.300000 4.000000 -2.500000
v -2.300000 4.000000 2.500000
vn 0.0000 -1.0000 0.0000
vn -1.0000 0.0000 0.0000
vn 0.0000 0.0000 -1.0000
vn 1.0000 0.0000 0.0000
vn 0.0000 0.0000 1.0000
vn 0.0000 1.0000 0.0000
s off
f 134//103 136//103 133//103
f 137//104 134//104 133//104
f 138//105 135//105 134//105
f 135//106 140//106 136//106
f 136//107 137//107 133//107
f 140//108 138//108 137//108
f 134//103 135//103 136//103
f 137//104 138//104 134//104
f 138//105 139//105 135//105
f 135//106 139//106 140//106
f 136//107 140//107 137//107
f 140//108 139//108 138//108
o Wall_1
v -2.500000 0.000000 2.500000
v -2.500000 0.000000 2.300000
v -0.500000 0.000000 2.300000
v -0.500000 0.000000 2.500000
v -2.500000 4.000000 2.500000
v -2.500000 4.000000 2.300000
v -0.500000 4.000000 2.300000
v -0.500000 4.000000 2.500000
vn 0.0000 -1.0000 0.0000
vn -1.0000 0.0000 0.0000
vn 0.0000 0.0000 -1.0000
vn 1.0000 0.0000 0.0000
vn 0.0000 0.0000 1.0000
vn 0.0000 1.0000 0.0000
s off
f 142//109 144//109 141//109
f 145//110 142//110 141//110
f 146//111 143//111 142//111
f 143//112 148//112 144//112
f 144//113 145//113 141//113
f 148//114 146//114 145//114
f 142//109 143//109 144//109
f 145//110 146//110 142//110
f 146//111 147//111 143//111
f 143//112 147//112 148//112
f 144//113 148//113 145//113
f 148//114 147//114 146//114
