# Blender v2.79 (sub 0) OBJ File: 'challenge1.blend'
# www.blender.org
mtllib tree.mtl
o Left_Triangle.048_Left_Triangle_Mesh.048
v 5.000000 7.000000 4.000000
v 4.751966 6.000681 3.564292
v 4.479066 5.073130 4.125696
vn -0.9652 0.2582 -0.0427
usemtl None
s off
f 1//1 2//1 3//1
o Right_Triangle.048_Right_Triangle_Mesh.048
v 5.000000 7.000000 4.000000
v 4.479092 5.073130 4.125803
v 4.978056 6.000681 4.500880
vn -0.8394 0.2582 0.4783
usemtl None
s off
f 4//2 5//2 6//2
o Left_Triangle.047_Left_Triangle_Mesh.047
v 5.000000 7.000000 4.000000
v 5.186004 6.000681 3.534420
v 4.576931 5.073130 3.671088
vn -0.5684 0.2582 -0.7812
usemtl None
s off
f 7//3 8//3 9//3
o Right_Triangle.047_Right_Triangle_Mesh.047
v 5.000000 7.000000 4.000000
v 4.576863 5.073130 3.671175
v 4.594715 6.000681 4.295137
vn -0.8973 0.2582 -0.3581
usemtl None
s off
f 10//4 11//4 12//4
o Left_Triangle.046_Left_Triangle_Mesh.046
v 5.000000 7.000000 4.000000
v 5.479977 6.000681 3.855139
v 4.993374 5.073130 3.464157
vn 0.2563 0.2582 -0.9315
usemtl None
s off
f 13//5 14//5 15//5
o Right_Triangle.046_Right_Triangle_Mesh.046
v 5.000000 7.000000 4.000000
v 4.993264 5.073130 3.464159
v 4.516561 6.000681 3.867151
vn -0.2795 0.2582 -0.9248
usemtl None
s off
f 16//6 17//6 18//6
o Left_Triangle.045_Left_Triangle_Mesh.045
v 5.000000 7.000000 4.000000
v 5.412517 6.000681 4.284942
v 5.414808 5.073130 3.660728
vn 0.8881 0.2582 -0.3803
usemtl None
s off
f 19//7 20//7 21//7
o Right_Triangle.045_Right_Triangle_Mesh.045
v 5.000000 7.000000 4.000000
v 5.414738 5.073130 3.660642
v 4.802447 6.000681 3.539202
vn 0.5488 0.2582 -0.7951
usemtl None
s off
f 22//8 23//8 24//8
o Left_Triangle.044_Left_Triangle_Mesh.044
v 5.000000 7.000000 4.000000
v 5.034424 6.000681 4.500177
v 5.523882 5.073130 4.112777
vn 0.8511 0.2582 0.4572
usemtl None
s off
f 25//9 26//9 27//9
o Right_Triangle.044_Right_Triangle_Mesh.044
v 5.000000 7.000000 4.000000
v 5.523905 5.073130 4.112669
v 5.237094 6.000681 3.558244
vn 0.9638 0.2582 -0.0667
usemtl None
s off
f 28//10 29//10 30//10
o Left_Triangle.043_Left_Triangle_Mesh.043
v 5.000000 7.000000 4.000000
v 4.630409 6.000681 4.338769
v 5.238463 5.073130 4.479903
vn 0.1732 0.2582 0.9505
usemtl None
s off
f 31//11 32//11 33//11
o Right_Triangle.043_Right_Triangle_Mesh.043
v 5.000000 7.000000 4.000000
v 5.238561 5.073130 4.479854
v 5.493205 6.000681 3.909937
vn 0.6531 0.2582 0.7119
usemtl None
s off
f 34//12 35//12 36//12
o Left_Triangle.042_Left_Triangle_Mesh.042
v 5.000000 7.000000 4.000000
v 4.504704 6.000681 3.922261
v 4.773476 5.073130 4.485652
vn -0.6351 0.2582 0.7280
usemtl None
s off
f 37//13 38//13 39//13
o Right_Triangle.042_Right_Triangle_Mesh.042
v 5.000000 7.000000 4.000000
v 4.773576 5.073130 4.485699
v 5.377922 6.000681 4.329450
vn -0.1494 0.2582 0.9545
usemtl None
s off
f 40//14 41//14 42//14
o Left_Triangle.041_Left_Triangle_Mesh.041
v 4.867018 6.000000 3.947809
v 4.913753 5.000681 3.448631
v 4.368198 4.073130 3.751977
vn -0.7662 0.2582 -0.5885
usemtl None
s off
f 43//15 44//15 45//15
o Right_Triangle.041_Right_Triangle_Mesh.041
v 4.867018 6.000000 3.947809
v 4.368158 4.073130 3.752079
v 4.561750 5.000681 4.345519
vn -0.9619 0.2582 -0.0897
usemtl None
s off
f 46//16 47//16 48//16
o Left_Triangle.040_Left_Triangle_Mesh.040
v 4.957892 6.000000 3.863490
v 5.377303 5.000681 3.588796
v 4.799990 4.073130 3.351398
vn -0.0176 0.2582 -0.9659
usemtl None
s off
f 49//17 50//17 51//17
o Right_Triangle.040_Right_Triangle_Mesh.040
v 4.957892 6.000000 3.863490
v 4.799885 4.073130 3.351430
v 4.456618 5.000681 3.872790
vn -0.5296 0.2582 -0.8080
usemtl None
s off
f 52//18 53//18 54//18
o Left_Triangle.039_Left_Triangle_Mesh.039
v 5.080474 6.000000 3.881966
v 5.556737 5.000681 4.038606
v 5.382394 4.073130 3.439229
vn 0.7443 0.2582 -0.6160
usemtl None
s off
f 55//19 56//19 57//19
o Right_Triangle.039_Right_Triangle_Mesh.039
v 5.080474 6.000000 3.881966
v 5.382303 4.073130 3.439167
v 4.760664 5.000681 3.495853
vn 0.3015 0.2582 -0.9179
usemtl None
s off
f 58//20 59//20 60//20
o Left_Triangle.038_Left_Triangle_Mesh.038
v 5.142457 6.000000 3.989324
v 5.316936 5.000681 4.459345
v 5.676847 4.073130 3.949332
vn 0.9456 0.2582 0.1978
usemtl None
s off
f 61//21 62//21 63//21
o Right_Triangle.038_Right_Triangle_Mesh.038
v 5.142457 6.000000 3.989324
v 5.676839 4.073130 3.949223
v 5.244935 5.000681 3.498549
vn 0.9056 0.2582 -0.3366
usemtl None
s off
f 64//22 65//22 66//22
o Left_Triangle.037_Left_Triangle_Mesh.037
v 5.097167 6.000000 4.104722
v 4.838476 5.000681 4.534187
v 5.461621 4.073130 4.497590
vn 0.4349 0.2582 0.8627
usemtl None
s off
f 67//23 68//23 69//23
o Right_Triangle.037_Right_Triangle_Mesh.037
v 5.097167 6.000000 4.104722
v 5.461701 4.073130 4.497515
v 5.544765 5.000681 3.878848
vn 0.8278 0.2582 0.4982
usemtl None
s off
f 70//24 71//24 72//24
o Left_Triangle.036_Left_Triangle_Mesh.036
v 4.978708 6.000000 4.141262
v 4.481647 5.000681 4.206776
v 4.898785 4.073130 4.671152
vn -0.4033 0.2582 0.8779
usemtl None
s off
f 73//25 74//25 75//25
o Right_Triangle.036_Right_Triangle_Mesh.036
v 4.978708 6.000000 4.141262
v 4.898893 4.073130 4.671168
v 5.434376 5.000681 4.350377
vn 0.1266 0.2582 0.9578
usemtl None
s off
f 76//26 77//26 78//26
o Left_Triangle.035_Left_Triangle_Mesh.035
v 4.876282 6.000000 4.071429
v 4.515148 5.000681 3.723658
v 4.412166 4.073130 4.339323
vn -0.9378 0.2582 0.2321
usemtl None
s off
f 79//27 80//27 81//27
o Right_Triangle.035_Right_Triangle_Mesh.035
v 4.876282 6.000000 4.071429
v 4.412221 4.073130 4.339418
v 4.996893 5.000681 4.558065
vn -0.6699 0.2582 0.6961
usemtl None
s off
f 82//28 83//28 84//28
o Left_Triangle.034_Left_Triangle_Mesh.034
v 4.842007 5.000000 3.761944
v 5.166606 4.000681 3.379847
v 4.545722 3.073130 3.315416
vn -0.2900 0.2582 -0.9215
usemtl None
s off
f 85//29 86//29 87//29
o Right_Triangle.034_Right_Triangle_Mesh.034
v 4.842007 5.000000 3.761944
v 4.545630 3.073130 3.315477
v 4.363829 4.000681 3.912634
vn -0.7365 0.2582 -0.6252
usemtl None
s off
f 88//30 89//30 90//30
o Left_Triangle.033_Left_Triangle_Mesh.033
v 5.087613 5.000000 3.728050
v 5.588732 4.000681 3.743599
v 5.251991 3.073130 3.218000
vn 0.5397 0.2582 -0.8013
usemtl None
s off
f 91//31 92//31 93//31
o Right_Triangle.033_Right_Triangle_Mesh.033
v 5.087613 5.000000 3.728050
v 5.251886 3.073130 3.217966
v 4.671659 4.000681 3.448150
vn 0.0296 0.2582 -0.9657
usemtl None
s off
f 94//32 95//32 96//32
o Left_Triangle.032_Left_Triangle_Mesh.032
v 5.267244 5.000000 3.898941
v 5.567531 4.000681 4.300426
v 5.768506 3.073130 3.709446
vn 0.9630 0.2582 -0.0777
usemtl None
s off
f 97//33 98//33 99//33
o Right_Triangle.032_Right_Triangle_Mesh.032
v 5.267244 5.000000 3.898941
v 5.768467 3.073130 3.709343
v 5.226737 4.000681 3.399220
vn 0.7734 0.2582 -0.5789
usemtl None
s off
f 100//34 101//34 102//34
o Left_Triangle.031_Left_Triangle_Mesh.031
v 5.245636 5.000000 4.145931
v 5.118967 4.000681 4.631026
v 5.706320 3.073130 4.419684
vn 0.6611 0.2582 0.7044
usemtl None
s off
f 103//35 104//35 105//35
o Right_Triangle.031_Right_Triangle_Mesh.031
v 5.245636 5.000000 4.145931
v 5.706376 3.073130 4.419590
v 5.611077 4.000681 3.802689
vn 0.9349 0.2582 0.2437
usemtl None
s off
f 106//36 107//36 108//36
o Left_Triangle.030_Left_Triangle_Mesh.030
v 5.039058 5.000000 4.283032
v 4.580819 4.000681 4.486451
v 5.112261 3.073130 4.813892
vn -0.1385 0.2582 0.9561
usemtl None
s off
f 109//37 110//37 111//37
o Right_Triangle.030_Right_Triangle_Mesh.030
v 5.039058 5.000000 4.283032
v 5.112370 3.073130 4.813877
v 5.535264 4.000681 4.354738
vn 0.3923 0.2582 0.8829
usemtl None
s off
f 112//38 113//38 114//38
o Left_Triangle.029_Left_Triangle_Mesh.029
v 4.803069 5.000000 4.207005
v 4.358323 4.000681 3.975568
v 4.433667 3.073130 4.595222
vn -0.8339 0.2582 0.4878
usemtl None
s off
f 115//39 116//39 117//39
o Right_Triangle.029_Right_Triangle_Mesh.029
v 4.803069 5.000000 4.207005
v 4.433747 3.073130 4.595299
v 5.056386 4.000681 4.639662
vn -0.4456 0.2582 0.8572
usemtl None
s off
f 118//40 119//40 120//40
o Left_Triangle.028_Left_Triangle_Mesh.028
v 4.715373 5.000000 3.975098
v 4.619022 4.000681 3.483083
v 4.181533 3.073130 3.928338
vn -0.9013 0.2582 -0.3478
usemtl None
s off
f 121//41 122//41 123//41
o Right_Triangle.028_Right_Triangle_Mesh.028
v 4.715373 5.000000 3.975098
v 4.181524 3.073130 3.928448
v 4.535048 4.000681 4.442907
vn -0.9480 0.2582 0.1860
usemtl None
s off
f 124//42 125//42 126//42
o Left_Triangle.027_Left_Triangle_Mesh.027
v 5.010684 4.000000 3.571562
v 5.495742 3.000681 3.444749
v 5.024099 2.073130 3.035846
vn 0.2910 0.2582 -0.9212
usemtl None
s off
f 127//43 128//43 129//43
o Right_Triangle.027_Right_Triangle_Mesh.027
v 5.010684 4.000000 3.571562
v 5.023989 2.073130 3.035843
v 4.532551 3.000681 3.420729
vn -0.2447 0.2582 -0.9346
usemtl None
s off
f 130//44 131//44 132//44
o Left_Triangle.026_Left_Triangle_Mesh.026
v 5.341628 4.000000 3.741227
v 5.743202 3.000681 4.041393
v 5.768832 2.073130 3.417702
vn 0.9017 0.2582 -0.3469
usemtl None
s off
f 133//45 134//45 135//45
o Right_Triangle.026_Right_Triangle_Mesh.026
v 5.341628 4.000000 3.741227
v 5.768765 2.073130 3.417614
v 5.161443 3.000681 3.273364
vn 0.5781 0.2582 -0.7740
usemtl None
s off
f 136//46 137//46 138//46
o Left_Triangle.025_Left_Triangle_Mesh.025
v 5.415319 4.000000 4.105753
v 5.431017 3.000681 4.606867
v 5.934618 2.073130 4.238039
vn 0.8334 0.2582 0.4887
usemtl None
s off
f 139//47 140//47 141//47
o Right_Triangle.025_Right_Triangle_Mesh.025
v 5.415319 4.000000 4.105753
v 5.934645 2.073130 4.237933
v 5.668765 3.000681 3.673171
vn 0.9656 0.2582 -0.0306
usemtl None
s off
f 142//48 143//48 144//48
o Left_Triangle.024_Left_Triangle_Mesh.024
v 5.176266 4.000000 4.390646
v 4.794266 3.000681 4.715358
v 5.396617 2.073130 4.879129
vn 0.1375 0.2582 0.9563
usemtl None
s off
f 145//49 146//49 147//49
o Right_Triangle.024_Right_Triangle_Mesh.024
v 5.176266 4.000000 4.390646
v 5.396718 2.073130 4.879084
v 5.672493 3.000681 4.319087
vn 0.6260 0.2582 0.7359
usemtl None
s off
f 148//50 149//50 150//50
o Left_Triangle.023_Left_Triangle_Mesh.023
v 4.804481 4.000000 4.381373
v 4.312438 3.000681 4.285169
v 4.559956 2.073130 4.858216
vn -0.6619 0.2582 0.7037
usemtl None
s off
f 151//51 152//51 153//51
o Right_Triangle.023_Right_Triangle_Mesh.023
v 4.804481 4.000000 4.381373
v 4.560054 2.073130 4.858266
v 5.169820 3.000681 4.724724
vn -0.1850 0.2582 0.9482
usemtl None
s off
f 154//52 155//52 156//52
o Left_Triangle.022_Left_Triangle_Mesh.022
v 4.579926 4.000000 4.084920
v 4.348358 3.000681 3.640242
v 4.054657 2.073130 4.191049
vn -0.9629 0.2582 -0.0787
usemtl None
s off
f 157//53 158//53 159//53
o Right_Triangle.022_Right_Triangle_Mesh.022
v 4.579926 4.000000 4.084920
v 4.054678 2.073130 4.191157
v 4.539269 3.000681 4.584629
vn -0.8567 0.2582 0.4465
usemtl None
s off
f 160//54 161//54 162//54
o Left_Triangle.021_Left_Triangle_Mesh.021
v 4.671695 4.000000 3.724520
v 4.874978 3.000681 3.266220
v 4.261220 2.073130 3.380018
vn -0.5388 0.2582 -0.8019
usemtl None
s off
f 163//55 164//55 165//55
o Right_Triangle.021_Right_Triangle_Mesh.021
v 4.671695 4.000000 3.724520
v 4.261149 2.073130 3.380103
v 4.255658 3.000681 4.004296
vn -0.8833 0.2582 -0.3914
usemtl None
s off
f 166//56 167//56 168//56
o Left_Triangle.020_Left_Triangle_Mesh.020
v 5.339326 3.000000 3.540230
v 5.809398 2.000681 3.714569
v 5.657589 1.073130 3.109092
vn 0.7668 0.2582 -0.5877
usemtl None
s off
f 169//57 170//57 171//57
o Right_Triangle.020_Right_Triangle_Mesh.020
v 5.339326 3.000000 3.540230
v 5.657500 1.073130 3.109026
v 5.034176 2.000681 3.142428
vn 0.3356 0.2582 -0.9059
usemtl None
s off
f 172//58 173//58 174//58
o Left_Triangle.019_Left_Triangle_Mesh.019
v 5.571029 3.000000 3.978634
v 5.727811 2.000681 4.454849
v 6.106540 1.073130 3.958651
vn 0.9376 0.2582 0.2330
usemtl None
s off
f 175//59 176//59 177//59
o Right_Triangle.019_Right_Triangle_Mesh.019
v 5.571029 3.000000 3.978634
v 6.106535 1.073130 3.958541
v 5.691784 2.000681 3.492033
vn 0.9175 0.2582 -0.3025
usemtl None
s off
f 178//60 179//60 180//60
o Left_Triangle.018_Left_Triangle_Mesh.018
v 5.372736 3.000000 4.433126
v 5.098167 2.000681 4.852619
v 5.722244 1.073130 4.839347
vn 0.4024 0.2582 0.8783
usemtl None
s off
f 181//61 182//61 183//61
o Right_Triangle.018_Right_Triangle_Mesh.018
v 5.372736 3.000000 4.433126
v 5.722327 1.073130 4.839275
v 5.828465 2.000681 4.224147
vn 0.8085 0.2582 0.5288
usemtl None
s off
f 184//62 185//62 186//62
o Left_Triangle.017_Left_Triangle_Mesh.017
v 4.893765 3.000000 4.561467
v 4.394602 2.000681 4.608350
v 4.794084 1.073130 5.087998
vn -0.4358 0.2582 0.8622
usemtl None
s off
f 187//63 188//63 189//63
o Right_Triangle.017_Right_Triangle_Mesh.017
v 4.893765 3.000000 4.561467
v 4.794192 1.073130 5.088018
v 5.341295 2.000681 4.787474
vn 0.0907 0.2582 0.9618
usemtl None
s off
f 190//64 191//64 192//64
o Left_Triangle.016_Left_Triangle_Mesh.016
v 4.494791 3.000000 4.267011
v 4.146913 2.000681 3.905980
v 4.020982 1.073130 4.517364
vn -0.9458 0.2582 0.1968
usemtl None
s off
f 193//65 194//65 195//65
o Right_Triangle.016_Right_Triangle_Mesh.016
v 4.494791 3.000000 4.267011
v 4.021034 1.073130 4.517461
v 4.597122 2.000681 4.757817
vn -0.6954 0.2582 0.6706
usemtl None
s off
f 196//66 197//66 198//66
o Left_Triangle.015_Left_Triangle_Mesh.015
v 4.476250 3.000000 3.771490
v 4.541617 2.000681 3.274410
v 3.985101 1.073130 3.557144
vn -0.7436 0.2582 -0.6168
usemtl None
s off
f 199//67 200//67 201//67
o Right_Triangle.015_Right_Triangle_Mesh.015
v 4.476250 3.000000 3.771490
v 3.985057 1.073130 3.557245
v 4.156325 2.000681 4.157508
vn -0.9579 0.2582 -0.1256
usemtl None
s off
f 202//68 203//68 204//68
o Left_Triangle.014_Left_Triangle_Mesh.014
v 4.852103 3.000000 3.448042
v 5.281492 2.000681 3.189223
v 4.713459 1.073130 2.930404
vn 0.0186 0.2582 -0.9659
usemtl None
s off
f 205//69 206//69 207//69
o Right_Triangle.014_Right_Triangle_Mesh.014
v 4.852103 3.000000 3.448042
v 4.713353 1.073130 2.930433
v 4.350832 2.000681 3.438593
vn -0.4990 0.2582 -0.8272
usemtl None
s off
f 208//70 209//70 210//70
o Left_Triangle.013_Left_Triangle_Mesh.013
v 5.677091 2.000000 3.772510
v 5.962155 1.000681 4.184942
v 6.185087 0.073130 3.601890
vn 0.9652 0.2582 -0.0416
usemtl None
s off
f 211//71 212//71 213//71
o Right_Triangle.013_Right_Triangle_Mesh.013
v 5.677091 2.000000 3.772510
v 6.185052 0.073130 3.601786
v 5.655297 1.000681 3.271623
vn 0.7945 0.2582 -0.5496
usemtl None
s off
f 214//72 215//72 216//72
o Left_Triangle.012_Left_Triangle_Mesh.012
v 5.600019 2.000000 4.387533
v 5.455300 1.000681 4.867553
v 6.050145 0.073130 4.678321
vn 0.6343 0.2582 0.7287
usemtl None
s off
f 217//73 218//73 219//73
o Right_Triangle.012_Right_Triangle_Mesh.012
v 5.600019 2.000000 4.387533
v 6.050205 0.073130 4.678229
v 5.978039 1.000681 4.058196
vn 0.9251 0.2582 0.2785
usemtl None
s off
f 220//74 221//74 222//74
o Left_Triangle.011_Left_Triangle_Mesh.011
v 5.071120 2.000000 4.710736
v 4.605595 1.000681 4.896879
v 5.124422 0.073130 5.243962
vn -0.1742 0.2582 0.9503
usemtl None
s off
f 223//75 224//75 225//75
o Right_Triangle.011_Right_Triangle_Mesh.011
v 5.071120 2.000000 4.710736
v 5.124531 0.073130 5.243951
v 5.564298 1.000681 4.800946
vn 0.3590 0.2582 0.8969
usemtl None
s off
f 226//76 227//76 228//76
o Left_Triangle.010_Left_Triangle_Mesh.010
v 4.488667 2.000000 4.498741
v 4.052885 1.000681 4.250837
v 4.105007 0.073130 4.872875
vn -0.8516 0.2582 0.4563
usemtl None
s off
f 229//77 230//77 231//77
o Right_Triangle.010_Right_Triangle_Mesh.010
v 4.488667 2.000000 4.498741
v 4.105083 0.073130 4.872954
v 4.725629 1.000681 4.940567
vn -0.4774 0.2582 0.8399
usemtl None
s off
f 232//78 233//78 234//78
o Left_Triangle.009_Left_Triangle_Mesh.009
v 4.291258 2.000000 3.911183
v 4.213372 1.000681 3.415910
v 3.759540 0.073130 3.844495
vn -0.8877 0.2582 -0.3813
usemtl None
s off
f 235//79 236//79 237//79
o Right_Triangle.009_Right_Triangle_Mesh.009
v 4.291258 2.000000 3.911183
v 3.759526 0.073130 3.844604
v 4.093568 1.000681 4.371922
vn -0.9543 0.2582 0.1504
usemtl None
s off
f 238//80 239//80 240//80
o Left_Triangle.008_Left_Triangle_Mesh.008
v 4.627546 2.000000 3.390507
v 4.966205 1.000681 3.020814
v 4.348165 0.073130 2.933213
vn -0.2554 0.2582 -0.9317
usemtl None
s off
f 241//81 242//81 243//81
o Right_Triangle.008_Right_Triangle_Mesh.008
v 4.627546 2.000000 3.390507
v 4.348071 0.073130 2.933271
v 4.144068 1.000681 3.523212
vn -0.7126 0.2582 -0.6523
usemtl None
s off
f 244//82 245//82 246//82
o Left_Triangle.007_Left_Triangle_Mesh.007
v 5.244300 2.000000 3.328791
v 5.744487 1.000681 3.363066
v 5.427635 0.073130 2.825244
vn 0.5692 0.2582 -0.7806
usemtl None
s off
f 247//83 248//83 249//83
o Right_Triangle.007_Right_Triangle_Mesh.007
v 5.244300 2.000000 3.328791
v 5.427531 0.073130 2.825206
v 4.839103 1.000681 3.033533
vn 0.0657 0.2582 -0.9639
usemtl None
s off
f 250//84 251//84 252//84
o Left_Triangle.006_Left_Triangle_Mesh.006
v 5.822148 1.000000 4.242417
v 5.819098 0.000681 4.743768
v 6.336138 -0.926870 4.394028
vn 0.8145 0.2582 0.5195
usemtl None
s off
f 253//85 254//85 255//85
o Right_Triangle.006_Right_Triangle_Mesh.006
v 5.822148 1.000000 4.242417
v 6.336169 -0.926870 4.393923
v 6.091592 0.000681 3.819614
vn 0.9661 0.2582 0.0055
usemtl None
s off
f 256//86 257//86 258//86
o Left_Triangle.005_Left_Triangle_Mesh.005
v 5.323072 1.000000 4.793926
v 4.929198 0.000681 5.104128
v 5.525005 -0.926870 5.290307
vn 0.1017 0.2582 0.9607
usemtl None
s off
f 259//87 260//87 261//87
o Right_Triangle.005_Right_Triangle_Mesh.005
v 5.323072 1.000000 4.793926
v 5.525107 -0.926870 5.290266
v 5.821628 0.000681 4.740972
vn 0.5980 0.2582 0.7588
usemtl None
s off
f 262//88 263//88 264//88
o Left_Triangle.004_Left_Triangle_Mesh.004
v 4.580716 1.000000 4.747592
v 4.092613 0.000681 4.633057
v 4.318532 -0.926870 5.214959
vn -0.6877 0.2582 0.6785
usemtl None
s off
f 265//89 266//89 267//89
o Right_Triangle.004_Right_Triangle_Mesh.004
v 4.580716 1.000000 4.747592
v 4.318628 -0.926870 5.215013
v 4.932961 0.000681 5.104363
vn -0.2204 0.2582 0.9406
usemtl None
s off
f 268//90 269//90 270//90
o Left_Triangle.003_Left_Triangle_Mesh.003
v 4.154089 1.000000 4.138307
v 3.939309 0.000681 3.685282
v 3.625219 -0.926870 4.224721
vn -0.9593 0.2582 -0.1147
usemtl None
s off
f 271//91 272//91 273//91
o Right_Triangle.003_Right_Triangle_Mesh.003
v 4.154089 1.000000 4.138307
v 3.625237 -0.926870 4.224830
v 4.094776 0.000681 4.636146
vn -0.8728 0.2582 0.4142
usemtl None
s off
f 274//92 275//92 276//92
o Left_Triangle.002_Left_Triangle_Mesh.002
v 4.364451 1.000000 3.424873
v 4.584727 0.000681 2.974495
v 3.967144 -0.926870 3.065264
vn -0.5085 0.2582 -0.8215
usemtl None
s off
f 277//93 278//93 279//93
o Right_Triangle.002_Right_Triangle_Mesh.002
v 4.364451 1.000000 3.424873
v 3.967070 -0.926870 3.065346
v 3.938243 0.000681 3.688898
vn -0.8680 0.2582 -0.4241
usemtl None
s off
f 280//94 281//94 282//94
o Left_Triangle.001_Left_Triangle_Mesh.001
v 5.053394 1.000000 3.144522
v 5.542854 0.000681 3.035935
v 5.086831 -0.926870 2.609682
vn 0.3252 0.2582 -0.9097
usemtl None
s off
f 283//95 284//95 285//95
o Right_Triangle.001_Right_Triangle_Mesh.001
v 5.053394 1.000000 3.144522
v 5.086720 -0.926870 2.609675
v 4.581235 0.000681 2.975916
vn -0.2096 0.2582 -0.9431
usemtl None
s off
f 286//96 287//96 288//96
o Left_Triangle_Left_Triangle_Mesh
v 5.702130 1.000000 3.508363
v 6.092200 0.000681 3.823335
v 6.141132 -0.926870 3.201038
vn 0.9140 0.2582 -0.3129
usemtl None
s off
f 289//97 290//97 291//97
o Right_Triangle_Right_Triangle_Mesh
v 5.702130 1.000000 3.508363
v 6.141069 -0.926870 3.200948
v 5.539565 0.000681 3.034090
vn 0.6067 0.2582 -0.7519
usemtl None
s off
f 292//98 293//98 294//98
o Cone
v 5.000000 -3.500000 4.000000
v 5.000000 3.500000 4.000000
v 5.000000 -3.500000 4.000000
v 5.000000 3.500000 4.000000
v 5.000000 -3.500000 4.000000
v 5.000000 3.500000 4.000000
v 5.000000 -3.500000 4.000000
v 5.000000 3.500000 4.000000
v 5.000000 -3.500000 4.000000
v 5.000000 3.500000 4.000000
v 5.000000 -3.500000 4.000000
v 5.000000 3.500000 4.000000
v 5.000000 -3.500000 4.000000
v 5.000000 3.500000 4.000000
v 5.000000 -3.500000 4.000000
v 5.000000 3.500000 4.000000
v 5.000000 -3.500000 4.000000
v 5.000000 3.500000 4.000000
v 5.000000 -3.500000 4.000000
v 5.000000 3.500000 4.000000
v 5.000000 -3.500000 4.000000
v 5.000000 3.500000 4.000000
v 5.000000 -3.500000 4.000000
v 5.000000 3.500000 4.000000
v 5.000000 -3.500000 4.000000
v 5.000000 3.500000 4.000000
v 5.000000 -3.500000 4.000000
v 5.000000 3.500000 4.000000
v 5.000000 -3.500000 4.000000
v 5.000000 3.500000 4.000000
v 5.000000 -3.500000 4.000000
v 5.000000 3.500000 4.000000
v 5.000000 -3.500000 4.000000
v 5.000000 3.500000 4.000000
v 5.000000 -3.500000 4.000000
v 5.000000 3.500000 4.000000
v 5.000000 -3.500000 4.000000
v 5.000000 3.500000 4.000000
v 5.000000 -3.500000 4.000000
v 5.000000 3.500000 4.000000
v 5.000000 -3.500000 4.000000
v 5.000000 3.500000 4.000000
v 5.000000 -3.500000 4.000000
v 5.000000 3.500000 4.000000
v 5.000000 -3.500000 4.000000
v 5.000000 3.500000 4.000000
v 5.000000 -3.500000 4.000000
v 5.000000 3.500000 4.000000
v 5.000000 -3.500000 4.000000
v 5.000000 3.500000 4.000000
v 5.000000 -3.500000 4.000000
v 5.000000 3.500000 4.000000
v 5.000000 -3.500000 4.000000
v 5.000000 3.500000 4.000000
v 5.000000 -3.500000 4.000000
v 5.000000 3.500000 4.000000
v 5.000000 -3.500000 4.000000
v 5.000000 3.500000 4.000000
v 5.000000 -3.500000 4.000000
v 5.000000 3.500000 4.000000
v 5.000000 -3.500000 4.000000
v 5.000000 3.500000 4.000000
v 5.000000 -3.500000 4.000000
v 5.000000 3.500000 4.000000
vn 0.0000 0.0000 1.0000
usemtl None
s off
f 295//99 296//99 298//99 297//99
f 297//99 298//99 300//99 299//99
f 299//99 300//99 302//99 301//99
f 301//99 302//99 304//99 303//99
f 303//99 304//99 306//99 305//99
f 305//99 306//99 308//99 307//99
f 307//99 308//99 310//99 309//99
f 309//99 310//99 312//99 311//99
f 311//99 312//99 314//99 313//99
f 313//99 314//99 316//99 315//99
f 315//99 316//99 318//99 317//99
f 317//99 318//99 320//99 319//99
f 319//99 320//99 322//99 321//99
f 321//99 322//99 324//99 323//99
f 323//99 324//99 326//99 325//99
f 325//99 326//99 328//99 327//99
f 327//99 328//99 330//99 329//99
f 329//99 330//99 332//99 331//99
f 331//99 332//99 334//99 333//99
f 333//99 334//99 336//99 335//99
f 335//99 336//99 338//99 337//99
f 337//99 338//99 340//99 339//99
f 339//99 340//99 342//99 341//99
f 341//99 342//99 344//99 343//99
f 343//99 344//99 346//99 345//99
f 345//99 346//99 348//99 347//99
f 347//99 348//99 350//99 349//99
f 349//99 350//99 352//99 351//99
f 351//99 352//99 354//99 353//99
f 353//99 354//99 356//99 355//99
f 298//99 296//99 358//99 356//99 354//99 352//99 350//99 348//99 346//99 344//99 342//99 340//99 338//99 336//99 334//99 332//99 330//99 328//99 326//99 324//99 322//99 320//99 318//99 316//99 314//99 312//99 310//99 308//99 306//99 304//99 302//99 300//99
f 355//99 356//99 358//99 357//99
f 357//99 358//99 296//99 295//99
f 295//99 297//99 299//99 301//99 303//99 305//99 307//99 309//99 311//99 313//99 315//99 317//99 319//99 321//99 323//99 325//99 327//99 329//99 331//99 333//99 335//99 337//99 339//99 341//99 343//99 345//99 347//99 349//99 351//99 353//99 355//99 357//99
